<svg width="67.000000" height="70.000000" viewBox="0 0 67 70" fill="none" xmlns="http://www.w3.org/2000/svg" xmlns:xlink="http://www.w3.org/1999/xlink">
	<desc>
			Created with Pixso.
	</desc>
	<defs/>
	<path id="Vector" d="M66.46 33.47C66.45 14.98 51.46 -0.01 32.97 0C14.48 0 -0.5 14.99 -0.5 33.48C-0.5 48.05 8.92 60.94 22.79 65.37C22.93 65.41 23.06 65.43 23.2 65.43C23.47 65.43 23.73 65.36 23.95 65.22C24.25 65.05 24.47 64.77 24.57 64.44L33.03 37.65C35.34 37.64 37.2 35.75 37.19 33.44C37.18 31.13 35.29 29.27 32.98 29.28C32.36 29.28 31.75 29.42 31.19 29.7L20.02 18.53C19.47 17.99 18.58 18.01 18.05 18.56C17.53 19.1 17.53 19.96 18.05 20.5L29.21 31.67C28.35 33.42 28.84 35.53 30.38 36.73L22.33 62.26C6.41 56.4 -1.74 38.74 4.12 22.82C9.99 6.9 27.65 -1.26 43.57 4.61C59.49 10.47 67.64 28.13 61.77 44.05C58.91 51.83 53.02 58.12 45.45 61.49L44.58 57.39C44.42 56.64 43.68 56.16 42.93 56.32C42.69 56.37 42.47 56.48 42.29 56.64L33.89 64.14C33.32 64.65 33.27 65.53 33.78 66.11C33.95 66.29 34.16 66.43 34.4 66.51L45.11 69.93C45.85 70.16 46.63 69.76 46.87 69.03C46.94 68.79 46.96 68.55 46.91 68.31L46.05 64.29C58.44 59.06 66.49 46.91 66.46 33.47ZM32.98 32.07C33.75 32.07 34.37 32.7 34.37 33.47C34.37 34.24 33.75 34.86 32.98 34.86C32.21 34.86 31.58 34.24 31.58 33.47C31.58 32.7 32.21 32.07 32.98 32.07ZM37.57 64.59L42.35 60.32L43.67 66.54L37.57 64.59Z" fill="#212121" fill-opacity="1.000000" fill-rule="nonzero"/>
</svg>
