<svg width="71.000000" height="53.000000" viewBox="0 0 71 53" fill="none" xmlns="http://www.w3.org/2000/svg" xmlns:xlink="http://www.w3.org/1999/xlink">
	<desc>
			Created with Pixso.
	</desc>
	<defs/>
	<path id="Vector" d="M3.49 52.88L59.46 52.88C61.4 52.88 62.96 51.32 62.96 49.38L62.96 44.72C62.96 42.79 61.4 41.22 59.46 41.22L58.3 41.22L58.3 12.14L64.92 5.87C66.46 6.63 68.32 6.17 69.33 4.78C70.33 3.39 70.19 1.48 68.99 0.25C67.79 -0.97 65.89 -1.16 64.47 -0.18C63.07 0.79 62.56 2.64 63.29 4.2L58.3 8.93L58.3 6.24C58.3 4.31 56.73 2.74 54.8 2.74L8.16 2.74C6.23 2.74 4.66 4.31 4.66 6.24L4.66 41.22L3.49 41.22C1.56 41.22 0 42.79 0 44.72L0 49.38C0 51.32 1.56 52.88 3.49 52.88ZM66.46 1.58C67.1 1.58 67.63 2.1 67.63 2.74C67.63 3.39 67.1 3.91 66.46 3.91C65.82 3.91 65.29 3.39 65.29 2.74C65.29 2.1 65.82 1.58 66.46 1.58ZM6.99 6.24C6.99 5.6 7.51 5.07 8.16 5.07L54.8 5.07C55.44 5.07 55.97 5.6 55.97 6.24L55.97 11.14L53.63 13.35L53.63 8.57C53.63 7.93 53.11 7.41 52.47 7.41L10.49 7.41C9.85 7.41 9.32 7.93 9.32 8.57L9.32 37.72C9.32 38.37 9.85 38.89 10.49 38.89L52.47 38.89C53.11 38.89 53.63 38.37 53.63 37.72L53.63 16.56L55.97 14.35L55.97 41.22L6.99 41.22L6.99 6.24ZM17.49 21.4C15.91 21.39 14.52 22.44 14.1 23.97C13.68 25.49 14.33 27.1 15.69 27.9C17.05 28.71 18.77 28.51 19.91 27.41L23.96 29.44C24.43 29.68 25 29.57 25.35 29.18L33.97 19.48L42.44 25.83C42.89 26.17 43.53 26.13 43.94 25.74L51.3 18.77L51.3 36.56L11.66 36.56L11.66 9.74L51.3 9.74L51.3 15.56L43.05 23.37L34.51 16.97C34.03 16.6 33.34 16.67 32.94 17.12L24.2 26.95L20.94 25.32C20.96 25.18 20.98 25.04 20.98 24.9C20.98 22.96 19.42 21.4 17.49 21.4ZM18.65 24.9C18.65 25.54 18.13 26.06 17.49 26.06C16.84 26.06 16.32 25.54 16.32 24.9C16.32 24.25 16.84 23.73 17.49 23.73C18.13 23.73 18.65 24.25 18.65 24.9ZM25.65 43.55L37.31 43.55L37.31 44.72C37.31 45.36 36.79 45.89 36.14 45.89L26.81 45.89C26.17 45.89 25.65 45.36 25.65 44.72L25.65 43.55ZM2.33 44.72C2.33 44.08 2.85 43.55 3.49 43.55L23.32 43.55L23.32 44.72C23.32 46.65 24.88 48.22 26.81 48.22L36.14 48.22C38.07 48.22 39.64 46.65 39.64 44.72L39.64 43.55L59.46 43.55C60.11 43.55 60.63 44.08 60.63 44.72L60.63 49.38C60.63 50.03 60.11 50.55 59.46 50.55L3.49 50.55C2.85 50.55 2.33 50.03 2.33 49.38L2.33 44.72Z" fill="#212121" fill-opacity="1.000000" fill-rule="nonzero"/>
</svg>
