<svg width="55.000000" height="60.000000" viewBox="0 0 55 60" fill="none" xmlns="http://www.w3.org/2000/svg" xmlns:xlink="http://www.w3.org/1999/xlink">
	<desc>
			Created with Pixso.
	</desc>
	<defs/>
	<path id="Vector" d="M54.06 24.97C53.43 24.12 52.51 23.57 51.46 23.43C50.41 23.28 49.37 23.55 48.53 24.2L45.79 26.3L45.79 26.3L41.64 29.4L38.67 28.21C43.96 25.84 47.67 20.54 47.67 14.39C47.67 6.03 40.84 -0.78 32.44 -0.78C24.04 -0.78 17.21 6.03 17.21 14.39C17.21 17.42 18.12 20.24 19.66 22.61L13.62 22.56C13.61 22.56 13.61 22.56 13.6 22.56C13.59 22.56 13.57 22.57 13.55 22.57C13.44 22.57 13.32 22.6 13.21 22.64C13.19 22.65 13.16 22.65 13.13 22.67C13.12 22.67 13.1 22.67 13.09 22.68L6.02 26.17C6.01 26.17 6.01 26.17 6.01 26.17L1.87 28.16C1.83 28.18 1.78 28.21 1.73 28.24C0.08 29.34 -0.48 31.5 0.42 33.26C0.91 34.2 1.73 34.89 2.73 35.21C3.12 35.33 3.52 35.39 3.91 35.39C4.55 35.39 5.18 35.23 5.75 34.93L8.79 33.31L13.74 30.75L16.71 30.74L4.8 42.58C4.8 42.58 4.8 42.58 4.8 42.59L1.87 45.5C1.18 46.19 0.8 47.1 0.8 48.08C0.8 49.05 1.18 49.97 1.87 50.66C2.58 51.36 3.52 51.72 4.45 51.72C5.39 51.72 6.32 51.36 7.03 50.66L9.91 47.79L13.72 44.95L15.69 46.91L11.83 50.75C11.83 50.75 11.83 50.75 11.83 50.75L8.9 53.67C8.21 54.36 7.83 55.27 7.83 56.25C7.83 57.22 8.21 58.13 8.9 58.82C9.61 59.53 10.55 59.89 11.48 59.89C12.42 59.89 13.35 59.53 14.06 58.82L16.99 55.91L21.68 51.24C21.68 51.24 21.68 51.24 21.68 51.24L23.89 49.05L23.88 49.04C23.9 49.03 23.92 49.02 23.93 49.01L35.23 36.63L42.82 37.71C42.88 37.72 42.93 37.72 42.99 37.72C43.13 37.72 43.27 37.69 43.4 37.64C43.44 37.62 43.47 37.61 43.51 37.59C43.55 37.57 43.59 37.55 43.63 37.53L50.66 32.86C50.69 32.84 50.7 32.82 50.73 32.8C50.75 32.77 50.79 32.77 50.81 32.74L53.59 30.14C55.04 28.78 55.24 26.56 54.06 24.97ZM4.66 32.87C4.28 33.07 3.85 33.11 3.43 32.98C3.03 32.85 2.69 32.57 2.5 32.2C2.15 31.51 2.35 30.68 2.97 30.22L5.84 28.84L6.53 30.86L6.83 31.71L4.66 32.87ZM12.31 28.87L8.92 30.62L8.36 28.99L7.96 27.81L12.39 25.62L12.31 28.87ZM45.34 14.39C45.34 16.4 44.86 18.29 44.03 19.99L34.88 15.83C34.78 14.58 34.13 13.48 33.15 12.8L36.36 2.16C41.56 3.82 45.34 8.67 45.34 14.39ZM19.55 14.39C19.55 7.31 25.33 1.55 32.44 1.55C32.99 1.55 33.54 1.6 34.07 1.67L30.94 12.07C30.9 12.07 30.86 12.05 30.81 12.05C28.55 12.05 26.72 13.89 26.72 16.14C26.72 18.39 28.55 20.22 30.81 20.22C32.33 20.22 33.65 19.38 34.35 18.15L42.8 21.99C40.45 25.16 36.69 27.22 32.44 27.22C25.33 27.22 19.55 21.46 19.55 14.39ZM32.58 16.14C32.58 17.1 31.79 17.89 30.81 17.89C29.84 17.89 29.05 17.1 29.05 16.14C29.05 15.17 29.84 14.39 30.81 14.39C31.79 14.39 32.58 15.17 32.58 16.14ZM5.39 49C4.87 49.51 4.03 49.51 3.52 49C3.27 48.76 3.13 48.43 3.13 48.08C3.13 47.73 3.27 47.4 3.52 47.16L5.62 45.06L7.48 46.91L5.39 49ZM12.42 57.17C11.9 57.68 11.06 57.68 10.55 57.17C10.3 56.92 10.16 56.59 10.16 56.25C10.16 55.9 10.3 55.57 10.55 55.32L12.65 53.23L13.53 54.1L14.52 55.08L12.42 57.17ZM20.03 49.58C20.03 49.58 20.03 49.58 20.03 49.58L16.17 53.43L15.29 52.56L14.31 51.58L18.16 47.74C18.16 47.74 18.16 47.74 18.16 47.74C18.16 47.74 18.17 47.74 18.17 47.74C18.25 47.65 18.31 47.54 18.36 47.44C18.38 47.41 18.41 47.38 18.42 47.35C18.46 47.26 18.46 47.17 18.48 47.07C18.48 47.02 18.51 46.97 18.51 46.91C18.51 46.83 18.48 46.76 18.46 46.68C18.45 46.61 18.45 46.54 18.42 46.47C18.38 46.36 18.3 46.27 18.22 46.17C18.2 46.15 18.19 46.11 18.17 46.09C18.17 46.09 18.17 46.09 18.17 46.09C18.16 46.09 18.16 46.09 18.16 46.08L14.65 42.58C14.61 42.55 14.56 42.53 14.52 42.5C14.46 42.45 14.4 42.41 14.33 42.37C14.26 42.34 14.2 42.32 14.13 42.3C14.05 42.28 13.98 42.27 13.9 42.26C13.83 42.26 13.76 42.26 13.69 42.27C13.61 42.28 13.54 42.29 13.47 42.31C13.39 42.34 13.33 42.37 13.26 42.41C13.22 42.44 13.17 42.45 13.13 42.48L9.25 45.37L7.28 43.41L12.52 38.19L22.06 47.57L20.03 49.58ZM34.95 34.23C34.92 34.23 34.88 34.24 34.85 34.24C34.77 34.23 34.68 34.24 34.6 34.25C34.53 34.26 34.47 34.28 34.41 34.3C34.33 34.33 34.26 34.36 34.19 34.4C34.13 34.44 34.07 34.48 34.01 34.54C33.98 34.56 33.95 34.57 33.93 34.6L23.65 45.86L14.18 36.55L20.38 30.38C20.83 29.93 20.84 29.19 20.38 28.73C20.15 28.5 19.85 28.39 19.55 28.39L19.55 28.39L14.69 28.42L14.75 24.9L21.54 24.96C24.31 27.79 28.17 29.55 32.44 29.55C33.4 29.55 34.33 29.45 35.24 29.29C35.33 29.36 35.41 29.43 35.52 29.47L40.79 31.57L41.13 33.23L41.52 35.17L34.95 34.23ZM43.79 34.62L43.1 31.21L46.27 28.85L47.1 29.95L48.34 31.6L43.79 34.62ZM52 28.43L50.17 30.15L48.13 27.44L49.95 26.05C50.29 25.79 50.72 25.68 51.14 25.74C51.56 25.79 51.93 26.02 52.19 26.36C52.66 27 52.58 27.89 52 28.43Z" fill="#212121" fill-opacity="1.000000" fill-rule="nonzero"/>
</svg>
